<?xml version="1.0" standalone="no"?>
<!DOCTYPE svg PUBLIC "-//W3C//DTD SVG 20010904//EN"
 "http://www.w3.org/TR/2001/REC-SVG-20010904/DTD/svg10.dtd">
<svg version="1.0" xmlns="http://www.w3.org/2000/svg"
 width="512.000000pt" height="512.000000pt" viewBox="0 0 512.000000 512.000000"
 preserveAspectRatio="xMidYMid meet">
<metadata>
Created by potrace 1.14, written by Peter Selinger 2001-2017
</metadata>
<g transform="translate(0.000000,512.000000) scale(0.100000,-0.100000)"
fill="#000000" stroke="none">
<path d="M4767 5056 c-59 -21 26 61 -787 -766 -224 -228 -447 -455 -495 -505
-100 -103 -460 -469 -1110 -1129 -247 -252 -526 -536 -620 -631 l-170 -174
-95 -5 c-98 -7 -123 -10 -200 -27 -25 -6 -53 -12 -62 -14 -49 -10 -212 -83
-272 -122 -138 -89 -282 -257 -351 -407 -68 -153 -98 -285 -109 -488 -6 -105
-14 -150 -45 -244 -53 -159 -186 -333 -346 -452 l-60 -45 245 6 c135 4 256 9
270 11 14 2 59 7 100 10 94 8 194 20 253 32 12 2 39 6 62 10 143 21 382 93
515 156 393 186 601 497 627 936 l6 107 86 100 c47 55 117 136 156 180 38 45
93 108 121 140 318 370 384 448 414 485 19 24 40 48 45 54 18 19 381 440 660
766 148 173 272 317 275 320 3 3 59 68 125 145 144 167 167 194 180 209 6 6
132 152 280 325 149 173 335 389 413 480 79 91 155 189 168 216 45 94 28 195
-45 265 -68 66 -150 86 -234 56z"/>
</g>
</svg>
