<!DOCTYPE svg PUBLIC "-//W3C//DTD SVG 1.1//EN" "http://www.w3.org/Graphics/SVG/1.1/DTD/svg11.dtd">
<!-- Uploaded to: SVG Repo, www.svgrepo.com, Transformed by: SVG Repo Mixer Tools -->
<svg height="800px" width="800px" version="1.1" id="Layer_1" xmlns="http://www.w3.org/2000/svg" xmlns:xlink="http://www.w3.org/1999/xlink" viewBox="0 0 512 512" xml:space="preserve" fill="#000000">
<g id="SVGRepo_bgCarrier" stroke-width="0"/>
<g id="SVGRepo_tracerCarrier" stroke-linecap="round" stroke-linejoin="round"/>
<g id="SVGRepo_iconCarrier"> <circle style="fill:#006D77;" cx="256" cy="256" r="256"/> <path style="fill:#666666;" d="M163.918,73.864h184.164c2.908,0,5.266,2.357,5.266,5.266v353.746c0,2.908-2.357,5.266-5.266,5.266 H163.918c-2.908,0-5.266-2.357-5.266-5.266V79.129C158.652,76.221,161.01,73.864,163.918,73.864z"/> <path style="fill:#FFFFFF;" d="M171.989,123.022h168.022c2.259,0,4.09,1.831,4.09,4.09v257.773c0,2.259-1.831,4.09-4.09,4.09 H171.989c-2.259,0-4.09-1.831-4.09-4.09V127.112C167.899,124.852,169.73,123.022,171.989,123.022z"/> <g> <path style="fill:#C0C1C4;" d="M211.781,96.353h88.432c2.031,0,3.678,1.647,3.678,3.678l0,0c0,2.031-1.647,3.678-3.678,3.678 H211.78c-2.031,0-3.678-1.647-3.678-3.678l0,0C208.104,98,209.75,96.353,211.781,96.353z"/> <circle style="fill:#C0C1C4;" cx="255.271" cy="414.65" r="12.213"/> <circle style="fill:#C0C1C4;" cx="182.903" cy="100.334" r="4.171"/> </g> <path style="fill:#006D77;" d="M222.744,316.489h23.617v63.309h-23.617V316.489z"/> <path style="fill:#92c3be;" d="M265.64,253.241h23.612v126.562H265.64V253.241z"/> <path style="fill:#006D77;" d="M308.536,198.127h23.612v181.676h-23.612V198.127z"/> <path style="fill:#92c3be;" d="M179.847,290.987h23.612v88.817h-23.612V290.987z"/> <path style="fill:#d7987d;" d="M192.534,236.431c5.886,0,10.654,4.768,10.654,10.654c0,0.716-0.071,1.412-0.209,2.09l18.645,10.635 c1.943-2.047,4.687-3.323,7.73-3.323c1.464,0,2.857,0.289,4.128,0.829l28.712-61.295c-2.65-1.938-4.369-5.066-4.369-8.607 c0-5.887,4.768-10.654,10.654-10.654c2.014,0,3.895,0.559,5.502,1.531l34.385-28.333c-1.228-1.735-1.948-3.857-1.948-6.147 c0-5.886,4.768-10.654,10.654-10.654c5.887,0,10.654,4.768,10.654,10.654c0,5.887-4.768,10.654-10.654,10.654 c-2.138,0-4.133-0.631-5.797-1.716l-34.214,28.347c1.308,1.768,2.076,3.952,2.076,6.318c0,5.887-4.773,10.654-10.654,10.654 c-0.914,0-1.805-0.119-2.654-0.331l-28.967,61.84c1.948,1.933,3.157,4.607,3.157,7.569c0,5.887-4.768,10.654-10.654,10.654 c-5.887,0-10.654-4.768-10.654-10.654c0-1.388,0.27-2.716,0.749-3.929l-18.015-10.27c-1.905,2.891-5.18,4.797-8.901,4.797 c-5.887,0-10.654-4.768-10.654-10.654s4.768-10.654,10.654-10.654L192.534,236.431z M317.073,137.377 c3.554,0,6.436,2.881,6.436,6.436s-2.881,6.436-6.436,6.436c-3.555,0-6.436-2.881-6.436-6.436S313.513,137.377,317.073,137.377z M268.479,180.98c3.554,0,6.436,2.881,6.436,6.436s-2.881,6.436-6.436,6.436c-3.555,0-6.436-2.876-6.436-6.436 C262.043,183.861,264.925,180.98,268.479,180.98z M229.355,260.706c3.555,0,6.436,2.881,6.436,6.436 c0,3.555-2.881,6.436-6.436,6.436c-3.555,0-6.436-2.876-6.436-6.436C222.919,263.588,225.8,260.706,229.355,260.706z M192.534,240.644c3.555,0,6.436,2.876,6.436,6.436c0,3.555-2.881,6.436-6.436,6.436c-3.555,0-6.436-2.881-6.436-6.436 S188.98,240.644,192.534,240.644z"/> </g>
</svg>