<?xml version="1.0" encoding="UTF-8" standalone="no"?>
<!DOCTYPE svg PUBLIC "-//W3C//DTD SVG 1.1//EN" "http://www.w3.org/Graphics/SVG/1.1/DTD/svg11.dtd">
<svg width="100%" height="100%" viewBox="0 0 771 348" version="1.1" xmlns="http://www.w3.org/2000/svg" xmlns:xlink="http://www.w3.org/1999/xlink" xml:space="preserve" xmlns:serif="http://www.serif.com/" style="fill-rule:evenodd;clip-rule:evenodd;stroke-linejoin:round;stroke-miterlimit:2;">
    <g transform="matrix(1,0,0,1,-252.798,-114.001)">
        <g transform="matrix(0.806728,0,0,0.309331,-117.782,288.915)">
            <g transform="matrix(1.23958,0,0,3.23279,200.541,-1515.9)">
                <g>
                    <g transform="matrix(1,0,0,1,197.197,518)">
                        <text x="0px" y="0px" style="font-family:'BigCaslon-Medium', 'Big Caslon';font-weight:500;font-size:400px;fill:white;">r</text>
                    </g>
                    <g transform="matrix(1,0,0,1,369.997,518)">
                        <text x="0px" y="0px" style="font-family:'BigCaslon-Medium', 'Big Caslon';font-weight:500;font-size:400px;fill:white;">o<tspan x="234.4px 468.8px " y="0px 0px ">ot</tspan></text>
                    </g>
                </g>
            </g>
        </g>
        <g transform="matrix(0.806728,0,0,0.309331,-117.782,288.915)">
            <g transform="matrix(1.23958,0,0,3.23279,153.072,-1745.43)">
                <g>
                    <g transform="matrix(1,0,0,1,251,695)">
                        <text x="0px" y="0px" style="font-family:'Gilroy-Light', 'Gilroy';font-weight:300;font-size:83.333px;fill:white;">d</text>
                    </g>
                    <g transform="matrix(1,0,0,1,311,695)">
                        <text x="0px" y="0px" style="font-family:'Gilroy-Light', 'Gilroy';font-weight:300;font-size:83.333px;fill:white;">e<tspan x="53.667px 97.667px 120.917px 181.167px 234.417px 262.917px 323.75px 352.25px 412.25px 465.917px 513.083px 568.417px 591.667px 648.833px " y="0px 0px 0px 0px 0px 0px 0px 0px 0px 0px 0px 0px 0px 0px ">sign &amp; develop</tspan></text>
                    </g>
                </g>
            </g>
        </g>
    </g>
</svg>
